name D:\school\WTK\thesis\model\3dpredictsim\Results\Batchsim_tmt_linear_v2\Pog_s1_tmt_bCst_d05_k800_ig24.mot
datacolumns 128
datarows 4
range 0.00000000 0.03151613
endheader
time	pelvis_tilt	pelvis_list	pelvis_rotation	pelvis_tx	pelvis_ty	pelvis_tz	hip_flexion_l	hip_adduction_l	hip_rotation_l	hip_flexion_r	hip_adduction_r	hip_rotation_r	knee_angle_l	knee_angle_r	ankle_angle_l	ankle_angle_r	subtalar_angle_l	subtalar_angle_r	tmt_angle_l	tmt_angle_r	mtp_angle_l	mtp_angle_r	lumbar_extension	lumbar_bending	lumbar_rotation	arm_flex_l	arm_add_l	arm_rot_l	arm_flex_r	arm_add_r	arm_rot_r	elbow_flex_l	elbow_flex_r	pro_sup_l	pro_sup_r	glut_med1_l/activation	glut_med2_l/activation	glut_med3_l/activation	glut_min1_l/activation	glut_min2_l/activation	glut_min3_l/activation	semimem_l/activation	semiten_l/activation	bifemlh_l/activation	bifemsh_l/activation	sar_l/activation	add_long_l/activation	add_brev_l/activation	add_mag1_l/activation	add_mag2_l/activation	add_mag3_l/activation	tfl_l/activation	pect_l/activation	grac_l/activation	glut_max1_l/activation	glut_max2_l/activation	glut_max3_l/activation	iliacus_l/activation	psoas_l/activation	quad_fem_l/activation	gem_l/activation	peri_l/activation	rect_fem_l/activation	vas_med_l/activation	vas_int_l/activation	vas_lat_l/activation	med_gas_l/activation	lat_gas_l/activation	soleus_l/activation	tib_post_l/activation	flex_dig_l/activation	flex_hal_l/activation	tib_ant_l/activation	per_brev_l/activation	per_long_l/activation	per_tert_l/activation	ext_dig_l/activation	ext_hal_l/activation	ercspn_l/activation	intobl_l/activation	extobl_l/activation	glut_med1_r/activation	glut_med2_r/activation	glut_med3_r/activation	glut_min1_r/activation	glut_min2_r/activation	glut_min3_r/activation	semimem_r/activation	semiten_r/activation	bifemlh_r/activation	bifemsh_r/activation	sar_r/activation	add_long_r/activation	add_brev_r/activation	add_mag1_r/activation	add_mag2_r/activation	add_mag3_r/activation	tfl_r/activation	pect_r/activation	grac_r/activation	glut_max1_r/activation	glut_max2_r/activation	glut_max3_r/activation	iliacus_r/activation	psoas_r/activation	quad_fem_r/activation	gem_r/activation	peri_r/activation	rect_fem_r/activation	vas_med_r/activation	vas_int_r/activation	vas_lat_r/activation	med_gas_r/activation	lat_gas_r/activation	soleus_r/activation	tib_post_r/activation	flex_dig_r/activation	flex_hal_r/activation	tib_ant_r/activation	per_brev_r/activation	per_long_r/activation	per_tert_r/activation	ext_dig_r/activation	ext_hal_r/activation	ercspn_r/activation	intobl_r/activation	extobl_r/activation	
          0.00000000	         -1.98152535	          0.93829460	          4.48707168	          0.00000000	          0.87409930	         -0.00190197	        -18.69053424	          1.58667873	          5.11665496	         25.80755547	         -0.31644398	         -2.74969410	         -3.82922458	         -7.62788875	         -7.60628663	          7.02370735	          6.12511341	          3.88079906	          1.37890743	          0.03932433	         25.30903092	         -0.11872148	         -0.31873089	         -3.24805566	         -1.47826431	          2.85987075	        -13.45475555	          8.73886323	         -9.11515094	        -13.45806790	          9.85520504	         25.17386169	         19.30039741	         86.51662706	         86.51662706	          0.31201952	          0.09533563	          0.08113031	          0.28768429	          0.16688774	          0.09533609	          0.05000203	          0.05000032	          0.05000029	          0.05000043	          0.09954905	          0.05000010	          0.05000010	          0.05000021	          0.05000092	          0.05000115	          0.24440239	          0.05000038	          0.05000034	          0.05860687	          0.05014287	          0.05000413	          0.39226704	          0.68028139	          0.05000037	          0.05831324	          0.08110048	          0.29495621	          0.05097406	          0.06129925	          0.05015622	          0.19894147	          0.29200211	          0.20345765	          0.22427750	          0.20738685	          0.29101593	          0.05000009	          0.07307771	          0.13062508	          0.05000041	          0.05000014	          0.05000044	          0.05000001	          0.05000003	          0.05000004	          0.05000081	          0.06904116	          0.08834136	          0.05000039	          0.05000062	          0.05816012	          0.08382837	          0.06904200	          0.12165504	          0.06784257	          0.05000068	          0.05000054	          0.05431864	          0.11782772	          0.12506776	          0.12621174	          0.05001605	          0.05000198	          0.08100126	          0.05875560	          0.05875836	          0.12748024	          0.05000009	          0.05000014	          0.05875467	          0.05000063	          0.05000161	          0.05000012	          0.05000053	          0.05000053	          0.05000047	          0.05000005	          0.05000013	          0.05000001	          0.05715473	          0.05875491	          0.05875477	          0.42006557	          0.25738458	          0.18699238	          0.14870608	          0.43814892	          0.23094807	          0.05704073	          0.16174425	          0.15011296	
          0.01050538	         -1.97310843	          1.00622670	          4.64692897	          0.01599648	          0.87290625	         -0.00179776	        -18.64006922	          1.47063863	          4.88946237	         25.35941122	         -0.17921746	         -2.53891654	         -5.66354275	         -7.48421514	         -8.20473470	          6.62859822	          7.04870189	          3.46638596	          1.31881776	          0.04626413	         26.31386050	         -0.08933689	         -0.13777852	         -3.09770810	         -1.53072875	          2.69986598	        -13.46729585	          8.96023810	        -10.15774182	        -13.45246740	          9.74940095	         25.94085142	         19.31567028	         86.51662706	         86.51662706	          0.26552861	          0.08113055	          0.06904185	          0.24481922	          0.14202137	          0.08113098	          0.05000076	          0.05000022	          0.05000018	          0.05000037	          0.08471674	          0.11600827	          0.05731883	          0.05001090	          0.05000536	          0.05000070	          0.20798630	          0.07939943	          0.05002830	          0.05000220	          0.05000127	          0.05000154	          0.33381901	          0.61472093	          0.05497883	          0.05000081	          0.06901655	          0.25100745	          0.10771280	          0.11051645	          0.08292031	          0.16929900	          0.24849361	          0.20051985	          0.20594776	          0.17650468	          0.24766013	          0.05000003	          0.06233851	          0.13403873	          0.05000027	          0.05000007	          0.05000022	          0.05000009	          0.05000012	          0.05071114	          0.05875446	          0.05875468	          0.21930092	          0.05875494	          0.05875476	          0.05875186	          0.07133791	          0.05875475	          0.10352871	          0.05773420	          0.05000238	          0.09534182	          0.15491231	          0.10027362	          0.16541134	          0.15141940	          0.05000018	          0.07159763	          0.06893263	          0.05000111	          0.05000337	          0.17384354	          0.05875461	          0.05000259	          0.05000022	          0.13395620	          0.10356773	          0.05232754	          0.16736616	          0.18018484	          0.14064592	          0.05010454	          0.05000162	          0.05660294	          0.05000003	          0.05000050	          0.05000047	          0.55231392	          0.27797937	          0.15913075	          0.41291333	          0.52679526	          0.33152293	          0.05000016	          0.13764419	          0.12774598	
          0.02101076	         -1.95738433	          1.05734604	          4.78140122	          0.03231033	          0.87167782	         -0.00168514	        -18.46570224	          1.34030315	          4.65484520	         24.83760020	         -0.04775018	         -2.30223453	         -7.73667587	         -7.93344163	         -8.83037468	          5.93111394	          7.98587339	          3.05921385	          1.21561545	          0.04481076	         27.10307730	         -0.04759794	          0.06755556	         -2.91375535	         -1.57757539	          2.46449580	        -13.48387879	          9.15059831	        -11.22187766	        -13.44976239	          9.64545102	         26.69595669	         19.34298372	         86.51662706	         86.51662706	          0.22596463	          0.06904205	          0.05875461	          0.20834108	          0.12086011	          0.06904244	          0.05001110	          0.05000059	          0.05000118	          0.05000015	          0.07209412	          0.18025997	          0.17637634	          0.05902139	          0.05870783	          0.05875881	          0.17699621	          0.06756931	          0.05000153	          0.05686196	          0.05875223	          0.05875420	          0.28407967	          0.53637204	          0.05875449	          0.05875479	          0.05875411	          0.21360708	          0.15468092	          0.15468901	          0.15468245	          0.14407328	          0.21146783	          0.17064230	          0.17526156	          0.15020595	          0.21075893	          0.05000006	          0.05305011	          0.14217402	          0.05000015	          0.05000008	          0.05000031	          0.05000009	          0.06904180	          0.06904324	          0.05000007	          0.05000041	          0.18662502	          0.05000043	          0.05000032	          0.05000032	          0.06070852	          0.05000033	          0.08810285	          0.05000005	          0.05000028	          0.08113591	          0.13183032	          0.22505190	          0.18845633	          0.14881936	          0.05875729	          0.06093018	          0.05866223	          0.09489723	          0.10124370	          0.14794090	          0.05000021	          0.05000108	          0.18196214	          0.11399669	          0.08813610	          0.06904188	          0.20236217	          0.22514347	          0.16438737	          0.05000008	          0.05000022	          0.05000003	          0.05875480	          0.06904105	          0.06904050	          0.47001859	          0.32297479	          0.19006603	          0.35138912	          0.44830270	          0.28212572	          0.05000000	          0.11713507	          0.10871170	
          0.03151613	         -1.93623665	          1.09047942	          4.89036381	          0.04882565	          0.87038353	         -0.00157939	        -18.19184027	          1.19864426	          4.41307992	         24.19718527	          0.04357023	         -2.05501282	         -9.99032951	         -8.68901817	         -9.44302052	          5.35600406	          8.90155307	          2.63616601	          1.06281196	         -0.02164974	         27.50149010	         -0.18559013	          0.28643031	         -2.69852054	         -1.61516077	          2.17193037	        -13.50195741	          9.30684182	        -12.28050699	        -13.45577511	          9.58010183	         27.44136288	         19.35686749	         86.51662706	         86.51662706	          0.26159474	          0.05875473	          0.05000014	          0.21778531	          0.10285190	          0.05875510	          0.05000382	          0.05000037	          0.05000027	          0.05000065	          0.06135508	          0.16526411	          0.16300005	          0.05022780	          0.05000318	          0.05000405	          0.15062372	          0.09404955	          0.05000166	          0.05000110	          0.05000085	          0.05000105	          0.24175157	          0.50026746	          0.05000015	          0.05000051	          0.05000013	          0.18177941	          0.13163340	          0.13164027	          0.13163470	          0.12260621	          0.17995893	          0.14521642	          0.14914750	          0.12782536	          0.17935583	          0.05000007	          0.12570428	          0.13868833	          0.05000067	          0.11438321	          0.05000047	          0.05000062	          0.05875450	          0.05875575	          0.21826053	          0.23007892	          0.35595165	          0.29125388	          0.21844812	          0.20836022	          0.07511071	          0.05000549	          0.08862975	          0.08113116	          0.05878341	          0.06904662	          0.11218751	          0.19151903	          0.16037628	          0.14670123	          0.05000260	          0.05185259	          0.05000081	          0.14542839	          0.13845023	          0.12590046	          0.05842166	          0.05000109	          0.15484967	          0.09701174	          0.21256198	          0.05875458	          0.17221004	          0.19159690	          0.13989352	          0.05000050	          0.05000233	          0.05000034	          0.05000034	          0.05875463	          0.05875450	          0.54926480	          0.33758150	          0.17435855	          0.42864272	          0.55203782	          0.34251816	          0.05000008	          0.09968184	          0.09251354	
